<?xml version="1.0" encoding="utf-8"?>
<!-- Generator: Adobe Illustrator 25.0.1, SVG Export Plug-In . SVG Version: 6.00 Build 0)  -->
<svg version="1.1"
	 id="svg8" inkscape:version="0.92.3 (2405546, 2018-03-11)" sodipodi:docname="Logo_Freifunk_generic.svg" xmlns:cc="http://creativecommons.org/ns#" xmlns:dc="http://purl.org/dc/elements/1.1/" xmlns:inkscape="http://www.inkscape.org/namespaces/inkscape" xmlns:rdf="http://www.w3.org/1999/02/22-rdf-syntax-ns#" xmlns:sodipodi="http://sodipodi.sourceforge.net/DTD/sodipodi-0.dtd" xmlns:svg="http://www.w3.org/2000/svg"
	 xmlns="http://www.w3.org/2000/svg" xmlns:xlink="http://www.w3.org/1999/xlink" x="0px" y="0px" viewBox="0 0 1178.7 329.4"
	 style="enable-background:new 0 0 1178.7 329.4;" xml:space="preserve">
<style type="text/css">
	.st0{display:none;fill:#374D9C;}
	.st1{fill-rule:evenodd;clip-rule:evenodd;fill:#FFFFFF;}
	.st2{enable-background:new    ;}
	.st3{fill:#FFFFFF;}
	.st4{fill:none;}
	.st5{fill:none;stroke:#000000;stroke-width:0.1568;stroke-miterlimit:10;}
	.st6{fill:#FFB400;stroke:#000000;stroke-width:1.763889e-02;stroke-miterlimit:10;}
	.st7{fill:none;stroke:#000000;stroke-width:0.9419;stroke-miterlimit:10;}
</style>
<rect x="-127.6" y="-105.3" class="st0" width="1455" height="498.4"/>
<sodipodi:namedview  bordercolor="#666666" borderopacity="1.0" id="base" inkscape:current-layer="layer1" inkscape:cx="1243.4623" inkscape:cy="35.299341" inkscape:document-units="mm" inkscape:pageopacity="1" inkscape:pageshadow="2" inkscape:window-height="835" inkscape:window-maximized="1" inkscape:window-width="1600" inkscape:window-x="0" inkscape:window-y="0" inkscape:zoom="0.49497475" pagecolor="#888888" showgrid="false">
	</sodipodi:namedview>
<path class="st1" d="M1.9,308.7h6.7V304h11.2v-23.2l7.7-4.4h10.9v3.1h0.9v18.9l3.9-1v-2.2h31.1v-4.6h15.6v4.8h6.3v3.7h10.5v-1.9h3.3
	V295h2.8v-1.3h4.6v-2l0.7,0.1v2.8h3.5v0.9h2.3v1.5h5.8v1.9h3.3v-7l-1.6-1.5v-2.8l1.9-0.5v-3.6h3.3v3.3h3.3l0.9-40.6h-1.2v-2.7h1.4
	v-3.3c0,0-6-0.6-6-8.1c0-7.8,5.1-8.2,5.1-8.2l-0.9-3.3h1.6v-5.3l-1.6-0.8v-2.8h3.3V209l-0.9-0.2v-1.2l0.9-0.2v-4.2H142v-0.8l0.5-0.5
	l0.5-17h-1v-0.8l0.9-0.5l0.5-36.3l0.7,36.3l0.9,0.5v0.8h-0.9l0.5,17l0.7,0.5v0.8h-0.7v4.2l1.2,0.2v1.2l-0.9,0.2v2.8h3v2.8l-1.4,0.8
	v5.3h1.4l-0.7,3.3c0,0,5.1,0.5,5.1,8.2c0,7.6-6,8.1-6,8.1v3.3h1.4v2.7h-1.4l0.9,40.6h3.5v-3.3h3.3v3.6l1.9,0.5v2.8l-1.6,1.5v4.2h0.5
	l0.2-0.8h7.7l0.5,1.2h2.1v2h3.7v1.6h2.3v3.1H192v-4.9h2.1v-1.6h6v1.5h1.9v2h3.3v1.2h13.5v-1.6h7v-7.1h2.8v-0.7h9.3
	c0,0,0.2-2.1-0.7-2.9s-0.7-3.8,4.6-5.5c5.6-1.6,11.4-1.3,11.4-1.3v-6.5h6.5v-4.3h3.9v-2.1h15.3l1.4,0.5l64.4-4.3l7,1.9l-0.2,4.3
	l4.9,1.2l11.4,0.5l2.8,0.7l3.9,0.1l4.7,1v3.3h9.1v-8.9H452l0.7,2.8h37.4l1.6,6l4.6,3.8v18.7h5.1V291l0.7-1.2h6.3l0.9,1.5v6.7H523
	l0.9,1.7v2.8h4.2V280l2.6-1.4h4.7l0.2,1.3h24.9v-3.3h0.9v2.7h3.3l0.2-1h1.6v3.7h7.4v-5h1.2v8H589v-4.2h0.9v-1.4h-0.7v-7.8l1.4-2.6
	l2.6,4.2h2.6v-10l8.6-5.3v-2.1l2.1-2l2.1,1v0.8h4.4v-1.5h7.4v-3h-1.6l4.4-3.1v-1h1.4v0.9H637l0.9,1.9l-1.6,0.4v7.2h24.9v4.4h7
	l0.7,3.1h8.6v2.9l11.6,6.6v4.6h-4.4v3.1h3.7v6.9h13v-18.9h5.8v-3.7h16.7v2.7l4.4,1.2v15.6h22.8v5.1H782v-4h2.6v3.5h5.4l2.3-1.4
	l0.7-4.9l1.2,4.6l2.8,1.3l3.7,4.3h17.7l4.2,3.3v-39.2h10.2v-5l18.6-1.4v-1.7l7.7-1.6l62.3,14.8v2.9l7.4,2v7.6l8.8-8.6l15.1,5.3v-9.4
	l-0.9-0.3v-5.6l1.4-0.9h2.1l3.7-14.9l0.2-4.3h-1.4v-7.8h3.3v7.8h-1.2l0.5,4l3.5,15.1h3.3l1.2,2v4l-0.9,1V274l5.6,3.3v1.7l-0.9,0.5
	v8.6h2.3v-5.2h32.1v7.7h12.8v-2.8l-3-3.1v-10.3l6-3.5v-13.7h-2.3v-5l4.4-2.6l4.2-17.8l0.2-1h-1.2v-7.7h3.3v7.7h-1.2l0.2,1.3l0.2,3.9
	l4,13.9l3.5,2.3v4.9h-2.3v13.5l7.4,4.4v9.1l-2.8,3.4l0.2,6.9h2.3V293h2.1v1.4h2.6V293h2.1v1.4h2.6V293h2.1v1.4h2.6V293h1.9v1.4h2.8
	V293h1.9v1.4h2.8V293h2.1v1.4h2.6V293h1.9v1.4h2.8V293h1.9v1.4h2.8V293h1.9v1.4h2.8V293h1.9v1.4h2.8V293h1.9v1.4h2.6V293h2.1v1.4
	h2.6V293h2.1v1.4h2.6V293h2.1v1.4h2.6V293h2.1v1.4h2.6V293h2.1v1.4h2.6V293h2.1v1.4h2.6V293h2.1v1.4h2.6V293h2.1v1.4h2.6V293h2.1
	v1.4h2.6V293h2.1v1.4h2.6V293h1.9v1.4h2.8V293h2.1v1.4h2.6V293h2.1v1.4h2.6V293h2.1v1.4h2.6V293h1.9v1.4h2.8V293h1.9v1.4h2.8V293
	h1.9v1.4h9.3v39h-37.2l-1.9-7.1c0,0-15.1-7.3-30.7-7.3s-26.3,8-26.3,8v4.6h-19.5v-3.5c0,0-13.5-10.2-32.8-9.9
	c-19.3,0.3-28.1,8.5-28.1,8.5v3.1h-28.1H0.7L1.9,308.7L1.9,308.7z M879.2,263.6c0,1.9,0,3.7,0,5.6c1.4,0.2,3,0.5,4.4,0.8
	c0-1.9,0-3.6,0-5.5C882.2,264.2,880.6,263.9,879.2,263.6L879.2,263.6z M922.2,292.2c0,1.3,0,2.7,0,4.1c0.7,0,1.6,0.1,2.3,0.1
	c0-1.4,0-2.8,0-4.1C923.8,292.3,922.9,292.2,922.2,292.2L922.2,292.2z M918.5,291.8c0,1.4,0,2.9,0,4.2c0.9,0.1,1.9,0.1,2.6,0.1
	c0-1.4,0-2.7,0-4.2C920.3,291.9,919.4,291.9,918.5,291.8L918.5,291.8z M914.7,291.5c0,1.5,0,2.9,0,4.4c0.9,0,1.6,0.1,2.6,0.1
	c0-1.4,0-2.9,0-4.3C916.4,291.7,915.7,291.6,914.7,291.5L914.7,291.5z M910.6,291.1c0,1.6,0,3.1,0,4.5c0.9,0,1.9,0.1,2.8,0.1
	c0-1.4,0-2.9,0-4.4C912.4,291.4,911.5,291.2,910.6,291.1L910.6,291.1z M906.1,290.9c0,1.5,0,3,0,4.6c1.2,0,2.1,0,3,0
	c0-1.5,0-3,0-4.5C908.2,291,907.3,290.9,906.1,290.9L906.1,290.9z M901.5,290.4c0,1.6,0,3.3,0,4.8c1.2,0.1,2.1,0.1,3.3,0.1
	c0-1.5,0-3,0-4.6C903.6,290.7,902.7,290.5,901.5,290.4L901.5,290.4z M896.6,290.1c0,1.6,0,3.4,0,5c1.2,0,2.3,0,3.3,0.1
	c0-1.6,0-3.3,0-4.9C898.9,290.2,897.8,290.2,896.6,290.1L896.6,290.1z M891.3,289.6c0,1.7,0,3.5,0,5.1c1.2,0.1,2.3,0.1,3.5,0.1
	c0-1.6,0-3.3,0-5C893.6,289.8,892.4,289.7,891.3,289.6L891.3,289.6z M885.5,289.2c0,1.9,0,3.6,0,5.3c1.4,0.1,2.6,0.1,4,0.1
	c0-1.6,0-3.5,0-5.2C888,289.4,886.8,289.3,885.5,289.2L885.5,289.2z M879.2,288.7c0,1.9,0,3.6,0,5.6c1.4,0,3,0,4.4,0.1
	c0-1.9,0-3.6,0-5.5C882.2,288.9,880.6,288.8,879.2,288.7L879.2,288.7z M922.2,286c0,1.4,0,2.7,0,4.1c0.7,0,1.6,0.1,2.3,0.1
	c0-1.3,0-2.7,0-4C923.8,286.1,922.9,286,922.2,286L922.2,286z M918.5,285.4c0,1.4,0,2.8,0,4.3c0.9,0,1.9,0.1,2.6,0.1
	c0-1.3,0-2.7,0-4.1C920.3,285.7,919.4,285.6,918.5,285.4L918.5,285.4z M914.7,285c0,1.4,0,2.9,0,4.3c0.9,0.1,1.6,0.2,2.6,0.3
	c0-1.5,0-2.9,0-4.4C916.4,285.2,915.7,285.1,914.7,285L914.7,285z M910.6,284.4c0,1.5,0,3,0,4.5c0.9,0.1,1.9,0.1,2.8,0.2
	c0-1.5,0-2.9,0-4.4C912.4,284.6,911.5,284.6,910.6,284.4L910.6,284.4z M906.1,283.8c0,1.5,0,3.1,0,4.6c1.2,0.1,2.1,0.2,3,0.3
	c0-1.6,0-3,0-4.5C908.2,284.2,907.3,283.9,906.1,283.8L906.1,283.8z M901.5,283.2c0,1.6,0,3.3,0,4.8c1.2,0.1,2.1,0.2,3.3,0.2
	c0-1.5,0-3,0-4.5C903.6,283.5,902.7,283.3,901.5,283.2L901.5,283.2z M896.6,282.6c0,1.6,0,3.3,0,4.9c1.2,0.1,2.3,0.2,3.3,0.2
	c0-1.6,0-3.1,0-4.8C898.9,282.9,897.8,282.8,896.6,282.6L896.6,282.6z M891.3,281.8c0,1.9,0,3.5,0,5.1c1.2,0.2,2.3,0.2,3.5,0.5
	c0-1.7,0-3.5,0-5.1C893.6,282.2,892.4,282.1,891.3,281.8L891.3,281.8z M885.5,281.1c0,1.7,0,3.6,0,5.3c1.4,0.1,2.6,0.2,4,0.3
	c0-1.7,0-3.5,0-5.2C888,281.5,886.8,281.3,885.5,281.1L885.5,281.1z M879.2,280.3c0,1.9,0,3.7,0,5.6c1.4,0.1,3,0.2,4.4,0.2
	c0-1.7,0-3.5,0-5.3C882.2,280.7,880.6,280.4,879.2,280.3L879.2,280.3z M922.2,279.7c0,1.4,0,2.8,0,4.2c0.7,0,1.6,0.2,2.3,0.2
	c0-1.3,0-2.7,0-4C923.8,280.1,922.9,280,922.2,279.7L922.2,279.7z M918.5,279.2c0,1.4,0,2.8,0,4.1c0.9,0.2,1.9,0.3,2.6,0.5
	c0-1.4,0-2.8,0-4.2C920.3,279.4,919.4,279.3,918.5,279.2L918.5,279.2z M914.7,278.5c0,1.4,0,2.9,0,4.3c0.9,0.1,1.6,0.2,2.6,0.3
	c0-1.4,0-2.9,0-4.3C916.4,278.7,915.7,278.6,914.7,278.5L914.7,278.5z M910.6,277.6c0,1.5,0,3,0,4.5c0.9,0.1,1.9,0.2,2.8,0.3
	c0-1.5,0-2.9,0-4.4C912.4,278,911.5,277.9,910.6,277.6L910.6,277.6z M906.1,276.8c0,1.6,0,3.1,0,4.6c1.2,0.1,2.1,0.2,3,0.4
	c0-1.4,0-2.9,0-4.5C908.2,277.2,907.3,277.1,906.1,276.8L906.1,276.8z M901.5,276c0,1.6,0,3.1,0,4.8c1.2,0.1,2.1,0.2,3.3,0.5
	c0-1.6,0-3.1,0-4.8C903.6,276.4,902.7,276.3,901.5,276L901.5,276z M896.6,275.1c0,1.6,0,3.4,0,5c1.2,0.1,2.3,0.3,3.3,0.5
	c0-1.6,0-3.3,0-4.9C898.9,275.4,897.8,275.3,896.6,275.1L896.6,275.1z M891.3,274.2c0,1.7,0,3.4,0,5.1c1.2,0.2,2.3,0.3,3.5,0.5
	c0-1.6,0-3.4,0-5C893.6,274.5,892.4,274.3,891.3,274.2L891.3,274.2z M885.5,273.1c0,1.7,0,3.5,0,5.3c1.4,0.1,2.6,0.3,4,0.5
	c0-1.7,0-3.5,0-5.1C888,273.5,886.8,273.3,885.5,273.1L885.5,273.1z M879.2,272c0,1.9,0,3.7,0,5.6c1.4,0.1,3,0.3,4.4,0.6
	c0-1.9,0-3.7,0-5.5C882.2,272.4,880.6,272.2,879.2,272L879.2,272z M922.2,273.6c0,1.4,0,2.8,0,4.1c0.7,0.2,1.6,0.3,2.3,0.5
	c0-1.4,0-2.7,0-4C923.8,273.9,922.9,273.8,922.2,273.6L922.2,273.6z M918.5,272.8c0,1.4,0,2.8,0,4.2c0.9,0.1,1.9,0.3,2.6,0.5
	c0-1.4,0-2.8,0-4.1C920.3,273.1,919.4,272.9,918.5,272.8L918.5,272.8z M914.7,271.8c0,1.5,0,2.9,0,4.4c0.9,0.1,1.6,0.2,2.6,0.5
	c0-1.5,0-2.9,0-4.3C916.4,272.2,915.7,272.1,914.7,271.8L914.7,271.8z M910.6,270.9c0,1.4,0,2.9,0,4.5c0.9,0.1,1.9,0.3,2.8,0.5
	c0-1.5,0-2.9,0-4.4C912.4,271.3,911.5,271,910.6,270.9L910.6,270.9z M906.1,269.9c0,1.5,0,3.1,0,4.6c1.2,0.1,2.1,0.3,3,0.6
	c0-1.5,0-3,0-4.5C908.2,270.3,907.3,270.1,906.1,269.9L906.1,269.9z M901.5,268.8c0,1.6,0,3.1,0,4.8c1.2,0.2,2.1,0.3,3.3,0.6
	c0-1.5,0-3.1,0-4.8C903.6,269.3,902.7,269,901.5,268.8L901.5,268.8z M896.6,267.7c0,1.6,0,3.3,0,4.9c1.2,0.2,2.3,0.5,3.3,0.7
	c0-1.6,0-3.3,0-4.9C898.9,268.1,897.8,267.9,896.6,267.7L896.6,267.7z M891.3,266.4c0,1.7,0,3.5,0,5.1c1.2,0.2,2.3,0.5,3.5,0.7
	c0-1.6,0-3.4,0-5C893.6,267,892.4,266.6,891.3,266.4L891.3,266.4z M885.5,265c0,1.9,0,3.6,0,5.3c1.4,0.3,2.6,0.6,4,0.7
	c0-1.6,0-3.4,0-5.1C888,265.6,886.8,265.3,885.5,265L885.5,265z M26.7,282.9v2.3h0.9v-2.3H26.7L26.7,282.9z M36,305.5v2.6h0.9v-2.6
	H36L36,305.5z M33.7,305.5v2.6h0.9v-2.6H33.7L33.7,305.5z M31.4,305.5v2.6h0.9v-2.6H31.4L31.4,305.5z M29,305.5v2.6h1v-2.6H29
	L29,305.5z M26.7,305.5v2.6h0.9v-2.6H26.7L26.7,305.5z M36,301v2.4h0.9V301H36L36,301z M33.7,301v2.4h0.9V301H33.7L33.7,301z
	 M31.4,301v2.4h0.9V301H31.4L31.4,301z M29,301v2.4h1V301H29L29,301z M26.7,301v2.4h0.9V301H26.7L26.7,301z M36,296.5v2.4h0.9v-2.4
	H36L36,296.5z M33.7,296.5v2.4h0.9v-2.4H33.7L33.7,296.5z M31.4,296.5v2.4h0.9v-2.4H31.4L31.4,296.5z M29,296.5v2.4h1v-2.4H29
	L29,296.5z M26.7,296.5v2.4h0.9v-2.4H26.7L26.7,296.5z M36,291.9v2.4h0.9v-2.4H36L36,291.9z M33.7,291.9v2.4h0.9v-2.4H33.7
	L33.7,291.9z M31.4,291.9v2.4h0.9v-2.4H31.4L31.4,291.9z M29,291.9v2.4h1v-2.4H29L29,291.9z M26.7,291.9v2.4h0.9v-2.4H26.7
	L26.7,291.9z M36,287.4v2.4h0.9v-2.4H36L36,287.4z M33.7,287.4v2.4h0.9v-2.4H33.7L33.7,287.4z M31.4,287.4v2.4h0.9v-2.4H31.4
	L31.4,287.4z M29,287.4v2.4h1v-2.4H29L29,287.4z M26.7,287.4v2.4h0.9v-2.4H26.7L26.7,287.4z M36,282.9v2.3h0.9v-2.3H36L36,282.9z
	 M33.7,282.9v2.3h0.9v-2.3H33.7L33.7,282.9z M31.4,282.9v2.3h0.9v-2.3H31.4L31.4,282.9z M29,282.9v2.3h1v-2.3H29L29,282.9z
	 M254.9,277.8c0,1.7,0,3.5,0,5.3c0.7-0.1,1.2-0.1,1.9-0.1c0-1.7,0-3.5,0-5.3C256.3,277.6,255.6,277.8,254.9,277.8L254.9,277.8z
	 M320,273.8c0,2,0,3.8,0,5.8c0.5,0,1.2,0,1.9-0.1c0-1.9,0-3.8,0-5.8C321.2,273.8,320.5,273.8,320,273.8L320,273.8z M344.7,306.8
	c0,2,0,4,0,6c0.5,0,1.2,0,1.6,0c0-2.1,0-4.1,0-6C345.8,306.8,345.1,306.8,344.7,306.8L344.7,306.8z M341.2,306.8c0,2.1,0,4,0,6
	c0.5,0,1.2,0,1.6,0c0-2.1,0-4.1,0-6C342.3,306.8,341.6,306.8,341.2,306.8L341.2,306.8z M337.4,306.8c0,2.1,0,4,0,6
	c0.7,0,1.4,0,1.9,0c0-2.1,0-3.9,0-6C338.8,306.8,338.1,306.8,337.4,306.8L337.4,306.8z M334,306.9c0,2,0,3.8,0,5.9
	c0.7,0,1.4,0,1.9,0c0-2.1,0-3.9,0-5.9C335.4,306.9,334.7,306.9,334,306.9L334,306.9z M330.5,306.9c0,2,0,4,0,5.9c0.7,0,1.4,0,1.9,0
	c0-2.1,0-3.9,0-5.9C331.9,306.9,331.2,306.9,330.5,306.9L330.5,306.9z M327,306.9c0,2,0,4,0,5.9c0.7,0,1.2,0,1.9,0c0-2,0-3.9,0-5.9
	C328.2,306.9,327.7,306.9,327,306.9L327,306.9z M323.5,306.9c0,2,0,4,0,5.9c0.5,0,1.2,0,1.9,0c0-2,0-3.9,0-5.9
	C324.7,306.9,324,306.9,323.5,306.9L323.5,306.9z M320,307c0,1.9,0,3.8,0,5.8c0.5,0,1.2,0,1.9,0c0-2,0-3.9,0-5.9
	C321.2,306.9,320.5,307,320,307L320,307z M344.7,298.2c0,2,0,4.1,0,5.9c0.5,0,1.2,0,1.6,0c0-2,0.2-4,0.2-5.9
	C345.8,298.2,345.1,298.2,344.7,298.2L344.7,298.2z M341.2,298.3c0,2,0,4,0,5.9c0.5,0,1.2,0,1.6,0c0-2,0-4.1,0-5.9
	C342.3,298.3,341.6,298.3,341.2,298.3L341.2,298.3z M337.4,298.3c0,2.1,0,4,0,5.9c0.7,0,1.4,0,1.9,0c0-2,0-3.9,0-5.9
	C338.8,298.3,338.1,298.3,337.4,298.3L337.4,298.3z M334,298.3c0,2.1,0,4.1,0,6c0.7,0,1.4,0,1.9,0c0-2,0-4,0-6
	C335.4,298.3,334.7,298.3,334,298.3L334,298.3z M330.5,298.4c0,2.1,0,4.1,0,5.9c0.7,0,1.4,0,1.9,0c0-2,0-4,0-5.9
	C331.9,298.4,331.2,298.4,330.5,298.4L330.5,298.4z M327,298.6c0,2,0,4,0,5.8c0.7,0,1.2,0,1.9,0c0-1.9,0-3.8,0-5.8
	C328.2,298.6,327.7,298.6,327,298.6L327,298.6z M323.5,298.7c0,1.9,0,3.8,0,5.8c0.5,0,1.2,0,1.9,0c0-2,0-4,0-5.9
	C324.7,298.6,324,298.6,323.5,298.7L323.5,298.7z M320,298.8c0,1.9,0,3.8,0,5.7c0.5,0,1.2,0,1.9,0c0-1.9,0-3.8,0-5.8
	C321.2,298.7,320.5,298.7,320,298.8L320,298.8z M344.7,289.6c0,2.1,0,4,0,6c0.5,0,1.2-0.1,1.9-0.1c0-2,0-4,0-5.9
	C345.8,289.6,345.1,289.6,344.7,289.6L344.7,289.6z M341.2,289.7c0,2,0,4.1,0,5.9c0.5,0,1.2,0,1.6,0c0.2-2,0.2-4,0.2-5.9
	C342.3,289.7,341.6,289.7,341.2,289.7L341.2,289.7z M337.4,289.8c0,2,0,3.9,0,5.9c0.7,0,1.4,0,1.9,0c0-2,0-4,0-6
	C338.8,289.8,338.1,289.8,337.4,289.8L337.4,289.8z M334,290c0,2,0,4,0,5.9c0.7,0,1.4,0,1.9,0c0-2,0-4.1,0-6
	C335.4,289.8,334.7,290,334,290L334,290z M330.5,290.1c0,2,0,4,0,5.9c0.7,0,1.4-0.1,1.9-0.1c0-2,0-4,0-5.8
	C331.9,290.1,331.2,290.1,330.5,290.1L330.5,290.1z M327,290.2c0,2,0,3.8,0,5.8c0.7,0,1.2,0,1.9,0c0-2,0-4,0-5.9
	C328.2,290.2,327.7,290.2,327,290.2L327,290.2z M323.5,290.3c0,2,0,4,0,5.8c0.5,0,1.2,0,1.9,0c0-2,0-4,0-5.9
	C324.7,290.2,324,290.3,323.5,290.3L323.5,290.3z M320,290.4c0,1.9,0,3.8,0,5.8c0.5-0.1,1.2-0.1,1.9-0.1c0-1.9,0-3.8,0-5.7
	C321.2,290.4,320.5,290.4,320,290.4L320,290.4z M344.7,281c0,2,0,4.1,0,5.9c0.7,0,1.2,0,1.9,0c0-2,0-4,0-6
	C345.8,281,345.4,281,344.7,281L344.7,281z M341.2,281.3c0,1.9,0,4,0,5.9c0.5,0,1.2,0,1.9-0.1c0-2,0-4,0-5.9
	C342.3,281.1,341.6,281.1,341.2,281.3L341.2,281.3z M337.4,281.4c0,2,0,4,0,5.9c0.7,0,1.4,0,1.9-0.1c0-2,0.2-4,0.2-5.9
	C338.8,281.3,338.1,281.4,337.4,281.4L337.4,281.4z M334,281.5c0,2,0,4,0,5.9c0.7,0,1.4,0,1.9,0c0-2.1,0-4,0-6
	C335.4,281.5,334.7,281.5,334,281.5L334,281.5z M330.5,281.7c0,2,0,3.8,0,5.8c0.7,0,1.4-0.1,1.9-0.1c0-1.9,0-3.8,0-5.8
	C331.9,281.6,331.2,281.6,330.5,281.7L330.5,281.7z M327,281.8c0,2,0,3.9,0,5.8c0.7,0,1.2,0,1.9,0c0-2,0-3.9,0-5.9
	C328.2,281.7,327.7,281.8,327,281.8L327,281.8z M323.5,281.9c0,2,0,4,0,5.8c0.5,0,1.2,0,1.9,0c0-2,0-4,0-5.9
	C324.7,281.9,324,281.9,323.5,281.9L323.5,281.9z M320,282.2c0,1.9,0,3.8,0,5.8c0.5-0.1,1.2-0.1,1.9-0.1c0-2,0-4,0-5.8
	C321.2,282.1,320.5,282.1,320,282.2L320,282.2z M344.7,272.4c0,2,0,4,0,6c0.7,0,1.2-0.1,1.9-0.1c0-2,0-4.1,0-6
	C345.8,272.3,345.4,272.4,344.7,272.4L344.7,272.4z M341.2,272.7c0,2,0,4,0,6c0.7-0.1,1.2-0.1,1.9-0.2c0-2,0-4,0-5.9
	C342.3,272.5,341.9,272.5,341.2,272.7L341.2,272.7z M337.4,272.9c0,1.9,0,3.9,0,5.9c0.7,0,1.4-0.1,2.1-0.1c0-2,0-3.9,0-6
	C338.8,272.8,338.1,272.8,337.4,272.9L337.4,272.9z M334,273c0,2,0,4,0,5.9c0.7,0,1.4,0,1.9-0.1c0-2,0-3.8,0.2-5.9
	C335.4,273,334.7,273,334,273L334,273z M330.5,273.2c0,2,0,4,0,5.9c0.7,0,1.4-0.1,1.9-0.1c0-2,0-4,0-5.9
	C331.9,273.1,331.2,273.1,330.5,273.2L330.5,273.2z M327,273.5c0,2,0,3.8,0,5.8c0.7,0,1.2,0,1.9-0.1c0-2,0-4,0-5.8
	C328.2,273.3,327.7,273.3,327,273.5L327,273.5z M323.5,273.7c0,1.9,0,3.8,0,5.8c0.5,0,1.2-0.1,1.9-0.1c0-2,0-4,0-5.9
	C324.7,273.6,324,273.6,323.5,273.7L323.5,273.7z M307.7,307.6c0,1.9,0,3.8,0,5.8c0.7,0,1.2,0,1.9,0c0-2,0-4,0-5.8
	C308.9,307.6,308.4,307.6,307.7,307.6L307.7,307.6z M304.2,307.6c0,1.9,0,3.8,0,5.8c0.7,0,1.2,0,1.9,0c0-2,0-4,0-5.8
	C305.4,307.6,304.9,307.6,304.2,307.6L304.2,307.6z M300.7,307.6c0,1.9,0,3.8,0,5.8c0.7,0,1.2,0,1.9,0c0-2,0-4,0-5.8
	C301.9,307.6,301.4,307.6,300.7,307.6L300.7,307.6z M297.2,307.7c0,1.9,0,3.7,0,5.7c0.7,0,1.2,0,1.9,0c0-2,0-3.8,0-5.7
	C298.4,307.7,297.9,307.7,297.2,307.7L297.2,307.7z M293.8,307.7c0,1.9,0,3.7,0,5.7c0.5,0,1.2,0,1.9,0c0-2,0-3.8,0-5.7
	C294.9,307.7,294.2,307.7,293.8,307.7L293.8,307.7z M290,307.7c0,1.9,0,3.7,0,5.7c0.7,0,1.4,0,2.1,0c0-2,0-3.8,0-5.7
	C291.4,307.7,290.7,307.7,290,307.7L290,307.7z M286.6,307.7c0,2,0,3.7,0,5.7c0.7,0,1.4,0,1.9,0c0-2,0-3.7,0-5.7
	C287.9,307.7,287.2,307.7,286.6,307.7L286.6,307.7z M283.1,307.9c0,1.9,0,3.6,0,5.6c0.7,0,1.2,0,1.9,0c0-2,0-3.7,0-5.7
	C284.5,307.7,283.8,307.9,283.1,307.9L283.1,307.9z M279.6,307.9c0,1.9,0,3.6,0,5.6c0.7,0,1.2,0,1.9,0c0-2,0-3.7,0-5.6
	C280.7,307.9,280.3,307.9,279.6,307.9L279.6,307.9z M276.1,307.9c0,1.9,0,3.7,0,5.6c0.7,0,1.2,0,1.9,0c0-1.9,0-3.7,0-5.6
	C277.3,307.9,276.8,307.9,276.1,307.9L276.1,307.9z M272.6,307.9c0,1.9,0,3.7,0,5.6c0.7,0,1.2,0,1.9,0c0-1.9,0-3.7,0-5.6
	C273.8,307.9,273.3,307.9,272.6,307.9L272.6,307.9z M269.1,307.9c0,1.9,0,3.7,0,5.6c0.5,0,1.2,0,1.9,0c0-1.9,0-3.7,0-5.6
	C270.3,307.9,269.6,307.9,269.1,307.9L269.1,307.9z M265.6,308c0,1.7,0,3.6,0,5.5c0.5,0,1.2,0,1.9,0c0-1.9,0-3.7,0-5.5
	C266.8,308,266.1,308,265.6,308L265.6,308z M261.9,308c0,1.9,0,3.6,0,5.5c0.7,0,1.4,0,2.1,0c0-1.9,0-3.6,0-5.5
	C263.3,308,262.6,308,261.9,308L261.9,308z M258.4,308.1c0,1.7,0,3.5,0,5.3c0.7,0,1.4,0,1.9,0c0-1.9,0-3.6,0-5.3
	C259.8,308.1,259.1,308.1,258.4,308.1L258.4,308.1z M254.9,308.1c0,1.7,0,3.5,0,5.3c0.7,0,1.2,0,1.9,0c0-1.9,0-3.6,0-5.3
	C256.1,308.1,255.6,308.1,254.9,308.1L254.9,308.1z M307.7,299.4c0,2,0,3.8,0,5.8c0.7,0,1.4,0,1.9,0c0-2,0-3.8,0-5.8
	C309.1,299.4,308.4,299.4,307.7,299.4L307.7,299.4z M304.2,299.5c0,1.9,0,3.7,0,5.7c0.7,0,1.2,0,1.9,0c0-2,0-3.8,0-5.8
	C305.6,299.5,304.9,299.5,304.2,299.5L304.2,299.5z M300.7,299.6c0,1.9,0,3.7,0,5.6c0.7,0,1.2,0,1.9,0c0-1.9,0-3.7,0-5.6
	C302.1,299.6,301.4,299.6,300.7,299.6L300.7,299.6z M297.2,299.6c0,1.9,0,3.8,0,5.7c0.7,0,1.2,0,1.9-0.1c0-1.7,0-3.7,0-5.6
	C298.4,299.6,297.9,299.6,297.2,299.6L297.2,299.6z M293.8,299.7c0,1.9,0,3.7,0,5.6c0.5,0,1.2,0,1.9,0c0-1.9,0-3.8,0-5.6
	C294.9,299.7,294.2,299.7,293.8,299.7L293.8,299.7z M290.3,299.7c0,2,0,3.7,0,5.6c0.5,0,1.2,0,1.9,0c0-1.9,0-3.7,0-5.6
	C291.4,299.7,290.7,299.7,290.3,299.7L290.3,299.7z M286.8,299.8c0,1.9,0,3.7-0.2,5.6c0.7,0,1.4-0.1,1.9-0.1c0-1.7,0-3.6,0-5.5
	C287.9,299.8,287.2,299.8,286.8,299.8L286.8,299.8z M283.1,299.8c0,2,0,3.7,0,5.6c0.7,0,1.4,0,1.9,0c0-1.9,0-3.7,0-5.6
	C284.5,299.8,283.8,299.8,283.1,299.8L283.1,299.8z M279.6,300c0,1.9,0,3.7,0,5.6c0.7,0,1.2,0,1.9,0c0-2,0-3.7,0-5.6
	C281,300,280.3,300,279.6,300L279.6,300z M276.1,300.1c0,1.9,0,3.6,0,5.5c0.7,0,1.2,0,1.9,0c0-1.9,0-3.7,0-5.6
	C277.3,300,276.8,300,276.1,300.1L276.1,300.1z M272.6,300.2c0,1.7,0,3.5,0,5.3c0.7,0,1.2,0,1.9,0c0-1.9,0-3.6,0-5.5
	C273.8,300.1,273.3,300.1,272.6,300.2L272.6,300.2z M269.1,300.2c0,1.7,0,3.6,0,5.5c0.5,0,1.2,0,1.9,0c0-1.9,0-3.7,0-5.5
	C270.3,300.2,269.6,300.2,269.1,300.2L269.1,300.2z M265.6,300.3c0,1.7,0,3.6,0,5.3c0.5,0,1.2,0,1.9,0c0-1.7,0-3.6,0-5.5
	C266.8,300.2,266.1,300.3,265.6,300.3L265.6,300.3z M261.9,300.4c0,1.6,0,3.5,0,5.2c0.7,0,1.4,0,2.1,0c0-1.7,0-3.6,0-5.3
	C263.3,300.3,262.6,300.4,261.9,300.4L261.9,300.4z M258.4,300.4c0,1.7,0,3.5,0,5.3c0.7,0,1.4,0,1.9-0.1c0-1.7,0-3.5,0-5.2
	C259.8,300.4,259.1,300.4,258.4,300.4L258.4,300.4z M254.9,300.5c0,1.7,0,3.5,0,5.2c0.7,0,1.2,0,1.9,0c0-1.7,0-3.5,0-5.3
	C256.1,300.5,255.6,300.5,254.9,300.5L254.9,300.5z M307.7,291.1c0,2,0,4,0,5.8c0.7,0,1.4,0,1.9,0c0-2,0.2-3.8,0.2-5.8
	C309.1,291.1,308.4,291.1,307.7,291.1L307.7,291.1z M304.2,291.4c0,1.9,0,3.7,0,5.7c0.7-0.1,1.4-0.1,1.9-0.1c0-1.9,0-3.8,0-5.7
	C305.6,291.2,304.9,291.4,304.2,291.4L304.2,291.4z M300.7,291.5c0,1.9,0,3.7,0,5.7c0.7,0,1.4-0.1,1.9-0.1c0-1.9,0-3.8,0-5.7
	C302.1,291.4,301.4,291.4,300.7,291.5L300.7,291.5z M297.2,291.5c0,2,0,3.8,0,5.7c0.7,0,1.2,0,1.9,0c0-2,0-3.8,0-5.7
	C298.4,291.5,297.9,291.5,297.2,291.5L297.2,291.5z M293.8,291.7c0,1.9,0,3.7,0,5.6c0.5,0,1.2,0,1.9,0c0-2,0-3.8,0-5.7
	C294.9,291.6,294.2,291.7,293.8,291.7L293.8,291.7z M290.3,291.8c0,1.7,0,3.7,0,5.6c0.5-0.1,1.2-0.1,1.9-0.1c0-1.9,0-3.7,0-5.6
	C291.4,291.7,290.7,291.7,290.3,291.8L290.3,291.8z M286.8,291.8c0,2,0,3.7,0,5.7c0.5,0,1.2-0.1,1.6-0.1c0-1.9,0-3.7,0-5.6
	C287.9,291.8,287.2,291.8,286.8,291.8L286.8,291.8z M283.1,291.9c0,1.9,0,3.7,0,5.6c0.7,0,1.4,0,1.9,0c0-1.9,0-3.7,0-5.6
	C284.5,291.9,283.8,291.9,283.1,291.9L283.1,291.9z M279.6,292.2c0,1.7,0,3.6,0,5.5c0.7,0,1.4,0,1.9,0c0-2,0-3.7,0-5.6
	C281,292.1,280.3,292.2,279.6,292.2L279.6,292.2z M276.1,292.2c0,1.9,0,3.7,0,5.6c0.7-0.1,1.4-0.1,1.9-0.1c0-1.7,0-3.6,0-5.5
	C277.5,292.2,276.8,292.2,276.1,292.2L276.1,292.2z M272.6,292.3c0,1.9,0,3.7,0,5.5c0.7,0,1.2,0,1.9,0c0-1.9,0-3.7,0-5.5
	C273.8,292.3,273.3,292.3,272.6,292.3L272.6,292.3z M269.1,292.5c0,1.7,0,3.5,0,5.3c0.5,0,1.2,0,1.9-0.1c0-1.7,0-3.5,0-5.3
	C270.3,292.4,269.6,292.5,269.1,292.5L269.1,292.5z M265.6,292.6c0,1.7,0,3.5,0,5.3c0.5,0,1.2,0,1.9,0c0-1.9,0-3.7,0-5.5
	C266.8,292.5,266.1,292.5,265.6,292.6L265.6,292.6z M262.1,292.6c0,1.9-0.2,3.6-0.2,5.5c0.7-0.1,1.4-0.1,2.1-0.1c0-1.9,0-3.6,0-5.3
	C263.3,292.6,262.6,292.6,262.1,292.6L262.1,292.6z M258.4,292.8c0,1.9,0,3.6,0,5.3c0.7,0,1.4,0,1.9,0c0-1.7,0-3.6,0-5.3
	C259.8,292.8,259.1,292.8,258.4,292.8L258.4,292.8z M254.9,293c0,1.7,0,3.5,0,5.2c0.7,0,1.2,0,1.9-0.1c0-1.7,0-3.5,0-5.2
	C256.1,292.9,255.6,292.9,254.9,293L254.9,293z M307.9,283c-0.2,2-0.2,3.8-0.2,5.8c0.7-0.1,1.4-0.1,2.1-0.1c0-2,0-3.8,0-5.8
	C309.1,283,308.4,283,307.9,283L307.9,283z M304.2,283.1c0,2,0,3.8,0,5.7c0.7,0,1.4,0,1.9,0c0.2-2,0.2-3.8,0.2-5.7
	C305.6,283.1,304.9,283.1,304.2,283.1L304.2,283.1z M300.7,283.2c0,2,0,3.8,0,5.7c0.7,0,1.4,0,1.9,0c0-2,0-3.8,0-5.7
	C302.1,283.2,301.4,283.2,300.7,283.2L300.7,283.2z M297.2,283.5c0,1.9,0,3.7,0,5.6c0.7,0,1.2,0,1.9,0c0-1.9,0-3.8,0-5.7
	C298.4,283.5,297.9,283.5,297.2,283.5L297.2,283.5z M293.8,283.7c0,1.9,0,3.7,0,5.6c0.7,0,1.2-0.1,1.9-0.1c0-1.9,0-3.8,0-5.6
	C294.9,283.6,294.4,283.6,293.8,283.7L293.8,283.7z M290.3,283.8c0,1.9,0,3.7,0,5.6c0.5,0,1.2-0.1,1.9-0.1c0-1.9,0-3.7,0-5.6
	C291.4,283.7,291,283.8,290.3,283.8L290.3,283.8z M286.8,283.9c0,1.9,0,3.7,0,5.6c0.5,0,1.2-0.1,1.9-0.1c0-1.9,0-3.6,0-5.6
	C287.9,283.9,287.2,283.9,286.8,283.9L286.8,283.9z M283.1,284.2c0,1.7,0,3.6,0,5.5c0.7,0,1.4,0,1.9,0c0-2,0-3.7,0-5.6
	C284.5,284,283.8,284,283.1,284.2L283.1,284.2z M279.6,284.3c0,1.7,0,3.7,0,5.5c0.7,0,1.4,0,1.9,0c0-2,0-3.7,0-5.6
	C281,284.2,280.3,284.3,279.6,284.3L279.6,284.3z M276.1,284.4c0,1.9,0,3.7,0,5.5c0.7,0,1.4,0,1.9,0c0-1.9,0-3.7,0-5.6
	C277.5,284.4,276.8,284.4,276.1,284.4L276.1,284.4z M272.6,284.6c0,1.7,0,3.6,0,5.3c0.7,0,1.2,0,1.9-0.1c0-1.7,0-3.5,0-5.3
	C273.8,284.5,273.3,284.5,272.6,284.6L272.6,284.6z M269.1,284.7c0,1.9,0,3.6,0,5.3c0.5,0,1.2,0,1.9,0c0-1.9,0-3.6,0-5.5
	C270.3,284.6,269.6,284.7,269.1,284.7L269.1,284.7z M265.6,284.9c0,1.9,0,3.6,0,5.3c0.5,0,1.2,0,1.9,0c0-1.7,0-3.6,0-5.5
	C266.8,284.9,266.1,284.9,265.6,284.9L265.6,284.9z M262.1,285.1c0,1.7,0,3.5,0,5.3c0.5,0,1.2-0.1,1.9-0.1c0-1.7,0-3.6,0-5.3
	C263.3,285,262.6,285,262.1,285.1L262.1,285.1z M258.4,285.2c0,1.7,0,3.6,0,5.3c0.7,0,1.4-0.1,1.9-0.1c0-1.7,0-3.6,0-5.3
	C259.8,285.1,259.1,285.2,258.4,285.2L258.4,285.2z M254.9,285.3c0,1.9,0,3.6,0,5.3c0.7,0,1.2-0.1,1.9-0.1c0-1.7,0-3.6,0-5.3
	C256.1,285.3,255.6,285.3,254.9,285.3L254.9,285.3z M307.9,274.7c0,2,0,3.9,0,5.8c0.5,0,1.2-0.1,1.9-0.1c0-2,0-3.8,0-5.8
	C309.1,274.7,308.4,274.7,307.9,274.7L307.9,274.7z M304.4,275c0,1.9,0,3.8-0.2,5.7c0.7,0,1.4,0,2.1-0.1c0-1.9,0-3.7,0-5.7
	C305.6,275,304.9,275,304.4,275L304.4,275z M301,275.2c-0.2,1.9-0.2,3.7-0.2,5.7c0.7,0,1.4-0.1,1.9-0.1c0-2,0-3.8,0-5.7
	C302.1,275.1,301.4,275.1,301,275.2L301,275.2z M297.2,275.4c0,1.9,0,3.7,0,5.6c0.7,0,1.2,0,1.9-0.1c0-1.9,0-3.7,0-5.7
	C298.6,275.3,297.9,275.3,297.2,275.4L297.2,275.4z M293.8,275.6c0,1.9,0,3.7,0,5.7c0.7,0,1.2-0.1,1.9-0.1c0-1.9,0-3.8,0-5.7
	C294.9,275.6,294.4,275.6,293.8,275.6L293.8,275.6z M290.3,275.8c0,1.9,0,3.7,0,5.6c0.7,0,1.2,0,1.9-0.1c0-1.7,0-3.7,0-5.6
	C291.4,275.8,291,275.8,290.3,275.8L290.3,275.8z M286.8,276c0,1.9,0,3.7,0,5.6c0.5,0,1.2-0.1,1.9-0.1c0-1.9,0-3.7,0-5.6
	C287.9,275.9,287.5,275.9,286.8,276L286.8,276z M283.1,276.1c0,1.9,0,3.7,0,5.6c0.7,0,1.4,0,2.1-0.1c0-1.9,0-3.7,0-5.6
	C284.5,276,283.8,276.1,283.1,276.1L283.1,276.1z M279.6,276.4c0,1.9,0,3.7,0,5.5c0.7,0,1.4,0,1.9,0c0-1.9,0-3.7,0.2-5.6
	C281,276.3,280.3,276.4,279.6,276.4L279.6,276.4z M276.1,276.5c0,1.9,0,3.7,0,5.6c0.7,0,1.4,0,1.9-0.1c0-1.9,0-3.6,0-5.5
	C277.5,276.5,276.8,276.5,276.1,276.5L276.1,276.5z M272.6,276.7c0,1.9,0,3.7,0,5.5c0.7,0,1.2,0,1.9,0c0-1.9,0-3.7,0-5.5
	C273.8,276.7,273.3,276.7,272.6,276.7L272.6,276.7z M269.1,277c0,1.9,0,3.6,0,5.5c0.5-0.1,1.2-0.1,1.9-0.1c0-1.9,0-3.6,0-5.5
	C270.3,276.8,269.6,277,269.1,277L269.1,277z M265.6,277.2c0,1.7,0,3.6,0,5.3c0.5,0,1.2,0,1.9,0c0-1.9,0-3.7,0-5.5
	C266.8,277.1,266.1,277.2,265.6,277.2L265.6,277.2z M262.1,277.3c0,1.9,0,3.6,0,5.5c0.5-0.1,1.2-0.1,1.9-0.1c0-1.7,0-3.6,0-5.3
	C263.3,277.3,262.6,277.3,262.1,277.3L262.1,277.3z M258.4,277.5c0,1.7,0,3.6,0,5.3c0.7,0,1.4,0,1.9,0c0-1.9,0-3.6,0-5.3
	C259.8,277.5,259.1,277.5,258.4,277.5L258.4,277.5z M482.2,276.8v2.3h1.2v-2.3H482.2L482.2,276.8z M478.7,276.8v2.3h1.4v-2.3H478.7
	L478.7,276.8z M475.3,276.8v2.3h1.4v-2.3H475.3L475.3,276.8z M471.8,276.8v2.3h1.4v-2.3H471.8L471.8,276.8z M468.5,276.8v2.3h1.2
	v-2.3H468.5L468.5,276.8z M465,276.8v2.3h1.2v-2.3H465L465,276.8z M461.6,276.8v2.3h1.4v-2.3H461.6L461.6,276.8z M483.9,298.4v4.4
	h1.9v-4.4H483.9L483.9,298.4z M478.3,298.4v4.4h1.9v-4.4H478.3L478.3,298.4z M472.7,298.4v4.4h1.9v-4.4H472.7L472.7,298.4z
	 M467.1,298.4v4.4h1.9v-4.4H467.1L467.1,298.4z M461.3,298.4v4.4h2.1v-4.4H461.3L461.3,298.4z M455.7,298.4v4.4h1.9v-4.4H455.7
	L455.7,298.4z M483.9,291.1v4.4h1.9v-4.4H483.9L483.9,291.1z M478.3,291.1v4.4h1.9v-4.4H478.3L478.3,291.1z M472.7,291.1v4.4h1.9
	v-4.4H472.7L472.7,291.1z M467.1,291.1v4.4h1.9v-4.4H467.1L467.1,291.1z M461.3,291.1v4.4h2.1v-4.4H461.3L461.3,291.1z M455.7,291.1
	v4.4h1.9v-4.4H455.7L455.7,291.1z M483.9,283.9v4.3h1.9v-4.3H483.9L483.9,283.9z M478.3,283.9v4.3h1.9v-4.3H478.3L478.3,283.9z
	 M472.7,283.9v4.3h1.9v-4.3H472.7L472.7,283.9z M467.1,283.9v4.3h1.9v-4.3H467.1L467.1,283.9z M461.3,283.9v4.3h2.1v-4.3H461.3
	L461.3,283.9z M455.7,283.9v4.3h1.9v-4.3H455.7L455.7,283.9z M390,272.5v4.3h1.9v-4.3H390L390,272.5z M444.4,299.8v4.2h1.9v-4.2
	H444.4L444.4,299.8z M440.4,299.8v4.2h1.9v-4.2H440.4L440.4,299.8z M436,299.8v4.2h1.9v-4.2H436L436,299.8z M432.3,299.8v4.2h1.9
	v-4.2H432.3L432.3,299.8z M427.9,299.8v4.2h1.9v-4.2H427.9L427.9,299.8z M423.9,299.8v4.2h1.9v-4.2H423.9L423.9,299.8z M419.5,299.8
	v4.2h1.9v-4.2H419.5L419.5,299.8z M415.5,299.8v4.2h1.9v-4.2H415.5L415.5,299.8z M411.1,299.8v4.2h2.1v-4.2H411.1L411.1,299.8z
	 M407.4,299.8v4.2h1.9v-4.2H407.4L407.4,299.8z M403,299.8v4.2h1.9v-4.2H403L403,299.8z M399,299.8v4.2h1.9v-4.2H399L399,299.8z
	 M394.6,299.8v4.2h1.9v-4.2H394.6L394.6,299.8z M390.9,299.8v4.2h1.9v-4.2H390.9L390.9,299.8z M444.4,293.1v4.3h1.9v-4.3H444.4
	L444.4,293.1z M440.4,293.1v4.3h1.9v-4.3H440.4L440.4,293.1z M436,293.1v4.3h1.9v-4.3H436L436,293.1z M432.3,293.1v4.3h1.9v-4.3
	H432.3L432.3,293.1z M427.9,293.1v4.3h1.9v-4.3H427.9L427.9,293.1z M423.9,293.1v4.3h1.9v-4.3H423.9L423.9,293.1z M419.5,293.1v4.3
	h1.9v-4.3H419.5L419.5,293.1z M415.5,293.1v4.3h1.9v-4.3H415.5L415.5,293.1z M411.1,293.1v4.3h2.1v-4.3H411.1L411.1,293.1z
	 M407.4,293.1v4.3h1.9v-4.3H407.4L407.4,293.1z M403,293.1v4.3h1.9v-4.3H403L403,293.1z M399,293.1v4.3h1.9v-4.3H399L399,293.1z
	 M394.6,293.1v4.3h1.9v-4.3H394.6L394.6,293.1z M390.9,293.1v4.3h1.9v-4.3H390.9L390.9,293.1z M444.4,286.4v4.3h1.9v-4.3H444.4
	L444.4,286.4z M440.4,286.4v4.3h1.9v-4.3H440.4L440.4,286.4z M436,286.4v4.3h1.9v-4.3H436L436,286.4z M432.3,286.4v4.3h1.9v-4.3
	H432.3L432.3,286.4z M427.9,286.4v4.3h1.9v-4.3H427.9L427.9,286.4z M423.9,286.4v4.3h1.9v-4.3H423.9L423.9,286.4z M419.5,286.4v4.3
	h1.9v-4.3H419.5L419.5,286.4z M415.5,286.4v4.3h1.9v-4.3H415.5L415.5,286.4z M411.1,286.4v4.3h2.1v-4.3H411.1L411.1,286.4z
	 M407.4,286.4v4.3h1.9v-4.3H407.4L407.4,286.4z M403,286.4v4.3h1.9v-4.3H403L403,286.4z M399,286.4v4.3h1.9v-4.3H399L399,286.4z
	 M394.6,286.4v4.3h1.9v-4.3H394.6L394.6,286.4z M390.9,286.4v4.3h1.9v-4.3H390.9L390.9,286.4z M444.4,279.6v4.3h1.9v-4.3H444.4
	L444.4,279.6z M440.4,279.6v4.3h1.9v-4.3H440.4L440.4,279.6z M436,279.6v4.3h1.9v-4.3H436L436,279.6z M432.3,279.6v4.3h1.9v-4.3
	H432.3L432.3,279.6z M427.9,279.6v4.3h1.9v-4.3H427.9L427.9,279.6z M423.9,279.6v4.3h1.9v-4.3H423.9L423.9,279.6z M419.5,279.6v4.3
	h1.9v-4.3H419.5L419.5,279.6z M415.5,279.6v4.3h1.9v-4.3H415.5L415.5,279.6z M411.1,279.6v4.3h2.1v-4.3H411.1L411.1,279.6z
	 M407.4,279.6v4.3h1.9v-4.3H407.4L407.4,279.6z M403,279.6v4.3h1.9v-4.3H403L403,279.6z M399,279.6v4.3h1.9v-4.3H399L399,279.6z
	 M394.6,279.6v4.3h1.9v-4.3H394.6L394.6,279.6z M390.9,279.6v4.3h1.9v-4.3H390.9L390.9,279.6z M448.1,272.5v4.3h1.9v-4.3H448.1
	L448.1,272.5z M444.1,272.5v4.3h1.9v-4.3H444.1L444.1,272.5z M440.4,272.5v4.3h1.6v-4.3H440.4L440.4,272.5z M436.5,272.5v4.3h1.9
	v-4.3H436.5L436.5,272.5z M432.5,272.5v4.3h1.9v-4.3H432.5L432.5,272.5z M428.8,272.5v4.3h1.6v-4.3H428.8L428.8,272.5z M424.8,272.5
	v4.3h1.9v-4.3H424.8L424.8,272.5z M420.9,272.5v4.3h1.9v-4.3H420.9L420.9,272.5z M417.2,272.5v4.3h1.9v-4.3H417.2L417.2,272.5z
	 M413.2,272.5v4.3h1.9v-4.3H413.2L413.2,272.5z M409.5,272.5v4.3h1.6v-4.3H409.5L409.5,272.5z M405.5,272.5v4.3h1.9v-4.3H405.5
	L405.5,272.5z M401.6,272.5v4.3h1.9v-4.3H401.6L401.6,272.5z M397.9,272.5v4.3h1.9v-4.3H397.9L397.9,272.5z M393.9,272.5v4.3h1.9
	v-4.3H393.9L393.9,272.5z M663.3,300.3v5.9h3.5v-5.9H663.3L663.3,300.3z M655.1,300.3v5.9h3.5v-5.9H655.1L655.1,300.3z M643.8,300.3
	v5.9h3.5v-5.9H643.8L643.8,300.3z M635.6,300.3v5.9h3.5v-5.9H635.6L635.6,300.3z M624.2,300.3v5.9h3.3v-5.9H624.2L624.2,300.3z
	 M616.1,300.3v5.9h3.5v-5.9H616.1L616.1,300.3z M663.3,290.4v5.9h3.5v-5.9H663.3L663.3,290.4z M655.1,290.4v5.9h3.5v-5.9H655.1
	L655.1,290.4z M643.8,290.4v5.9h3.5v-5.9H643.8L643.8,290.4z M635.6,290.4v5.9h3.5v-5.9H635.6L635.6,290.4z M624.2,290.4v5.9h3.3
	v-5.9H624.2L624.2,290.4z M616.1,290.4v5.9h3.5v-5.9H616.1L616.1,290.4z M663.3,280.6v6h3.5v-6H663.3L663.3,280.6z M655.1,280.6v6
	h3.5v-6H655.1L655.1,280.6z M643.8,280.6v6h3.5v-6H643.8L643.8,280.6z M635.6,280.6v6h3.5v-6H635.6L635.6,280.6z M624.2,280.6v6h3.3
	v-6H624.2L624.2,280.6z M616.1,280.6v6h3.5v-6H616.1L616.1,280.6z M624.2,271v6h3.3v-6H624.2L624.2,271z M616.1,271v6h3.5v-6H616.1z
	"/>
<g class="st2">
	<path class="st3" d="M422.7,219.3v-86.6H413v-17.3h9.7v-2.8c0-5.3,0.2-13.9,2.8-20.9c2.7-7,8-12.7,19.2-12.7c3,0,5.1,0.2,6.6,0.8
		l2.3,0.6v16.5c-0.6-0.2-1.1-0.2-1.7-0.4c-1.3-0.2-2.7-0.4-4-0.4c-3.2,0-4.7,2.8-5.5,6.5c-0.4,1.9-0.6,3.8-0.6,5.7
		c0,1.9,0,3.4,0,4.6v2.7h9.7v17.3h-9.7v86.6H422.7z"/>
</g>
<g class="st2">
	<path class="st3" d="M501.2,135.2c-1.7-0.6-3.6-0.8-5.3-0.8c-3,0-6.6,0.4-9.7,3.2c-3.6,3-4.2,6.3-4.2,9.5v72.2h-19.2V115.4H482V127
		c0.2-1.3,1.5-4.6,4.6-7.6c3-2.8,7.6-5.5,14.6-5.5V135.2z"/>
</g>
<g class="st2">
	<path class="st3" d="M555.7,182.1v12c-0.6,10.1-3.6,17.1-10.4,22.6c-3.4,2.8-8.2,4.2-14.4,4.2c-12.3,0-18.6-6.8-21.7-13.7
		c-1.7-4-2.8-8.5-3-13.7v-52.2c0.6-10.1,3.8-17.5,10.6-23.2c3.2-2.8,8-4.2,14.2-4.2c12.3,0,18.6,6.8,21.7,13.5c1.7,4,2.8,8.4,3,13.3
		v30.2H524v22.6c0.2,4,1.3,6.8,3,8.9c1,1,2.3,1.5,4,1.5c3.6,0,5.3-2.3,6.1-5.1c0.6-1.5,0.8-3.2,0.8-5.3v-11.4H555.7z M524,155.9
		h13.9v-14.6c0-4-0.8-6.8-2.7-9.1c-0.9-0.9-2.5-1.5-4.2-1.5c-3.6,0-5.1,2.5-6.1,5.3c-0.6,1.5-0.8,3.2-0.9,5.3V155.9z"/>
	<path class="st3" d="M568.4,79.7h19.2v19.2h-19.2V79.7z M568.4,219.3V115.4h19.2v103.9H568.4z"/>
	<path class="st3" d="M606.8,219.3v-86.6h-9.7v-17.3h9.7v-2.8c0-5.3,0.2-13.9,2.8-20.9c2.7-7,8-12.7,19.2-12.7c3,0,5.1,0.2,6.6,0.8
		l2.3,0.6v16.5c-0.6-0.2-1.1-0.2-1.7-0.4c-1.3-0.2-2.7-0.4-4-0.4c-3.2,0-4.7,2.8-5.5,6.5c-0.4,1.9-0.6,3.8-0.6,5.7
		c0,1.9,0,3.4,0,4.6v2.7h9.7v17.3H626v86.6H606.8z"/>
	<path class="st3" d="M676.5,115.4h19.2v103.9h-19.2v-8.7c-0.4,0.2-1.1,1-2.1,1.9c-2.3,2.3-4.9,4.9-8.4,6.8c-1.7,1-3.4,1.5-5.1,1.5
		c-5.1,0-8.7-3-11-7c-2.3-3.8-3.4-8.9-3.4-13.3v-85.1h19.2v82.3c0,4,2.3,4.6,4.6,4.6c2.1,0,3.2-1.1,4.6-2.5c0.6-0.6,1.1-1.5,1.7-2.5
		V115.4z"/>
	<path class="st3" d="M730,219.3h-19.2V115.4H730v8.7c0.4-0.2,1.1-1,2.3-2.1c2.1-2.1,4.9-4.9,8.4-6.8c1.7-0.9,3.2-1.3,4.9-1.3
		c5.1,0,8.7,3,11,6.8c2.3,4,3.4,9.1,3.4,13.5v85.1h-19.2v-82.3c0-4-2.3-4.6-4.6-4.6c-2.1,0-3.2,1.1-4.6,2.5
		c-0.6,0.8-1.1,1.5-1.7,2.5V219.3z"/>
	<path class="st3" d="M794.1,79.7V146h0.9l1.1-3.4l9.3-27.2h17.3l-13.9,33.8l17.5,70.1h-18.4l-9.5-42l-0.4-1.5h-1l-0.6,1.5l-2.5,6.1
		v35.9h-19.2V79.7H794.1z"/>
	<path class="st3" d="M863.6,79.7h19.2v42.6c3.2-3,6.1-5.3,9.9-7c1.7-0.9,3.6-1.3,5.3-1.3c5.3,0,8.9,3,11.4,6.8
		c2.3,4,3.4,9.1,3.4,13.5v66.3c0,4.4-1.1,9.5-3.4,13.3c-2.5,4-6.1,7-11.4,7c-3.6,0-7.4-2.1-10.3-4.2c-1.7-1.3-3.2-2.7-4.9-4.2v6.8
		h-19.2V79.7z M882.8,196.5c0,3.6,2.8,6.3,5.7,6.3s5.1-2.7,5.1-6.3v-58.3c0-3.6-2.3-6.3-5.1-6.3s-5.7,3.2-5.7,6.3V196.5z"/>
	<path class="st3" d="M975.3,182.1v12c-0.6,10.1-3.6,17.1-10.4,22.6c-3.4,2.8-8.2,4.2-14.4,4.2c-12.3,0-18.6-6.8-21.7-13.7
		c-1.7-4-2.8-8.5-3-13.7v-52.2c0.6-10.1,3.8-17.5,10.6-23.2c3.2-2.8,8-4.2,14.2-4.2c12.3,0,18.6,6.8,21.7,13.5c1.7,4,2.8,8.4,3,13.3
		v30.2h-31.7v22.6c0.2,4,1.3,6.8,3,8.9c1,1,2.3,1.5,4,1.5c3.6,0,5.3-2.3,6.1-5.1c0.6-1.5,0.8-3.2,0.8-5.3v-11.4H975.3z M943.5,155.9
		h13.9v-14.6c0-4-0.8-6.8-2.7-9.1c-0.9-0.9-2.5-1.5-4.2-1.5c-3.6,0-5.1,2.5-6.1,5.3c-0.6,1.5-0.8,3.2-1,5.3V155.9z"/>
</g>
<g class="st2">
	<path class="st3" d="M1027.1,135.2c-1.7-0.6-3.6-0.8-5.3-0.8c-3,0-6.6,0.4-9.7,3.2c-3.6,3-4.2,6.3-4.2,9.5v72.2h-19.2V115.4h19.2
		V127c0.2-1.3,1.5-4.6,4.6-7.6c3-2.8,7.6-5.5,14.6-5.5V135.2z"/>
</g>
<g class="st2">
	<path class="st3" d="M1036.2,219.3V79.7h19.2v139.6H1036.2z"/>
	<path class="st3" d="M1070.6,79.7h19.2v19.2h-19.2V79.7z M1070.6,219.3V115.4h19.2v103.9H1070.6z"/>
	<path class="st3" d="M1124.2,219.3H1105V115.4h19.2v8.7c0.4-0.2,1.1-1,2.3-2.1c2.1-2.1,4.9-4.9,8.4-6.8c1.7-0.9,3.2-1.3,4.9-1.3
		c5.1,0,8.7,3,11,6.8c2.3,4,3.4,9.1,3.4,13.5v85.1H1135v-82.3c0-4-2.3-4.6-4.6-4.6c-2.1,0-3.2,1.1-4.6,2.5c-0.6,0.8-1.1,1.5-1.7,2.5
		V219.3z"/>
</g>
<g>
	<path id="path14_1_" inkscape:connector-curvature="0" class="st4" d="M54.4,176.9c0-46,37.3-83.2,83.2-83.2s83.2,37.3,83.2,83.2
		s-37.3,83.2-83.2,83.2C91.7,260.1,54.4,222.9,54.4,176.9"/>
	<path id="path16_1_" inkscape:connector-curvature="0" class="st4" d="M133,144c0-66.9,54-121.1,120.6-121.1S374.3,77.1,374.3,144
		s-54,121.1-120.6,121.1S133,210.9,133,144"/>
	<path id="path18_1_" inkscape:connector-curvature="0" class="st5" d="M72.5,176.9c0-36.1,29.2-65.4,65.2-65.4
		c36,0,65.2,29.3,65.2,65.4c0,36.1-29.2,65.4-65.2,65.4C101.6,242.3,72.5,213,72.5,176.9L72.5,176.9z"/>
	<path id="path20_1_" inkscape:connector-curvature="0" class="st6" d="M221.2,162l27.6-27.7h26l-18.4,18.5h36.8v18.5l-36.8,0
		l18.4,18.5h-26L221.2,162"/>
	<path id="path22_1_" inkscape:connector-curvature="0" class="st6" d="M139.3,162L123,145.7h-15.3l10.9,10.9H96.8v10.9l21.7,0
		l-10.9,10.9H123L139.3,162"/>
	<path id="path24_1_" inkscape:connector-curvature="0" class="st7" d="M162.4,144c0-50.6,40.9-91.6,91.2-91.6s91.2,41,91.2,91.6
		c0,50.6-40.9,91.6-91.2,91.6S162.4,194.6,162.4,144L162.4,144z"/>
	<path id="path26_1_" inkscape:connector-curvature="0" class="st5" d="M183.7,144c0-38.8,31.3-70.2,69.9-70.2s69.9,31.4,69.9,70.2
		s-31.3,70.2-69.9,70.2S183.7,182.7,183.7,144L183.7,144z"/>
	<path id="path33_1_" inkscape:connector-curvature="0" class="st3" d="M244.9,244.9c-19.8-1.9-38.8-9.6-53.7-21.5l-3.3-2.6l-1.8,2
		c-1,1.1-3.4,3.4-5.4,5c-10.1,8.5-21.2,13.5-34.2,15.4c-6,0.9-15.8,0.6-21.8-0.6c-27.2-5.4-48.2-27.2-53-54.8
		c-0.8-4.6-0.9-16.2-0.1-20.7c1.6-9.9,5.1-19,10.2-26.8c9.8-14.9,25-25.2,42.7-29.1c3.6-0.8,5.3-0.9,13-0.9c9,0,11.4,0.2,17.7,2.1
		c1.2,0.3,2.1,0.5,2.2,0.4c0.1-0.1,0.8-1.9,1.6-4c13.6-36.4,46.4-61.8,85.1-65.6c5.9-0.6,18.6-0.3,24.3,0.6
		c13.2,2.1,27.9,7.5,38.6,14.3c8.9,5.7,19.9,15.4,25.7,23c8.8,11.4,15.2,24.1,18.5,36.9c6.3,24.2,3.8,48.6-7.1,70.8
		c-14.6,29.9-42.4,50.2-75.5,55.4C262.7,245,250.4,245.4,244.9,244.9z M143.8,240.6c14.8-1.6,27.5-7.5,37.9-17.5l4.2-4l-4.7-4.9
		c-10.8-11.2-18.4-23.8-23.2-38.3c-3.6-11-5-19.9-5-31.7c0-8.1,0.7-14.6,2.2-21.6c0.6-2.5,1.1-5,1.2-5.6c0.1-1,0.1-1-2.2-1.7
		c-6.7-1.8-16-2.6-22.9-1.8c-28.1,3.2-49.8,22.8-56,50.7c-0.7,3.3-0.9,5-0.9,12.9c0,10,0.4,12.8,2.9,20.4
		C86.6,225.3,114.9,243.7,143.8,240.6L143.8,240.6z M260.9,225.6c9.9-1,19.9-3.8,28.5-8c21.7-10.7,37.4-30.2,43.3-53.8
		c3.8-14.9,3.1-31.1-1.8-45.8c-8.9-26.7-31-47-58.4-53.7c-12.4-3-26.8-2.9-39.6,0.4c-19.2,4.9-36.4,17.4-47.6,34.5
		c-4,6.1-10,19.3-10,22.1c0,0.4,0.4,1,0.8,1.2c0.4,0.2,2.4,1.8,4.3,3.3l3.5,2.9l0.3-1.5c0.6-3,3.5-11,5.5-15
		c9.6-19,26.3-32.6,46.6-37.7c13.8-3.5,29.5-2.6,42.4,2.4c36.3,14,54.9,53.8,42.4,90.4c-12.9,37.4-53.3,57.3-90.5,44.5
		c-9.6-3.3-18.5-8.7-25.5-15.4l-2.9-2.7l-0.7,2.3c-0.4,1.3-1.2,3.6-1.8,5.1c-0.6,1.5-1.1,3-1.1,3.2s1.6,1.7,3.7,3.3
		c8.5,6.8,18.5,12.1,28.4,15C240.7,225.5,251.2,226.5,260.9,225.6L260.9,225.6z M267,211.4c12.9-2.8,24.3-8.7,33.5-17.5
		c10.4-9.9,17.2-22.1,20.3-36.8c0.8-3.8,0.9-5.4,0.9-13.3c0-7.9-0.1-9.6-0.9-13.2c-4-18.5-14-33.6-29.2-43.8
		c-20.2-13.5-46-15.3-68-4.6c-7.4,3.6-13.6,8.2-19.6,14.6c-7.8,8.2-13,17.4-16.2,28.4c-1.8,6-1.8,5.7,0.5,8.5
		c7.1,8.3,12.3,19.2,14.6,30.2c1.2,5.7,1.5,16.7,0.6,22.4l-0.7,4.1l3.5,3.2c10.4,9.9,23.1,16.2,37.2,18.4
		C249.1,212.8,261.7,212.5,267,211.4L267,211.4z M197.9,197.2c2.1-6.3,2.1-6,0.1-8.3c-7.8-9.6-13.1-21.7-15.1-34.6
		c-0.7-4.5-0.8-15.5-0.2-19.4l0.4-2.4l-2.1-2.1c-1.1-1.2-3.1-2.9-4.4-3.9l-2.4-1.8l-0.3,1.1c-1.8,6.3-2.4,21-1.3,29.3
		c1.5,11,5.4,21.9,11.1,31.4c3.6,6,11.6,15.8,12.4,15.1C196.5,201.5,197.2,199.5,197.9,197.2L197.9,197.2z M201.3,179.9
		c0.7-12.2-2.8-25.8-9.2-36.3c-2.1-3.3-5.7-8.2-6.1-8.2c-0.5,0-0.8,6.8-0.6,11.8c0.3,6.1,1.1,11.1,2.9,16.9
		c2.1,7,6.8,16.2,10.9,21.5l1.3,1.5l0.3-1.3C200.8,185,201.1,182.4,201.3,179.9z"/>
</g>
</svg>
