<?xml version="1.0" encoding="UTF-8" standalone="no"?>
<!-- Created with Inkscape (http://www.inkscape.org/) -->

<svg
   xmlns:dc="http://purl.org/dc/elements/1.1/"
   xmlns:cc="http://creativecommons.org/ns#"
   xmlns:rdf="http://www.w3.org/1999/02/22-rdf-syntax-ns#"
   xmlns:svg="http://www.w3.org/2000/svg"
   xmlns="http://www.w3.org/2000/svg"
   xmlns:sodipodi="http://sodipodi.sourceforge.net/DTD/sodipodi-0.dtd"
   xmlns:inkscape="http://www.inkscape.org/namespaces/inkscape"
   width="415.83603mm"
   height="116.19809mm"
   viewBox="0 0 415.83602 116.19809"
   version="1.1"
   id="svg8"
   inkscape:version="0.92.3 (2405546, 2018-03-11)"
   sodipodi:docname="Logo_Freifunk_generic.svg">
  <defs
     id="defs2" />
  <sodipodi:namedview
     id="base"
     pagecolor="#888888"
     bordercolor="#666666"
     borderopacity="1.0"
     inkscape:pageopacity="1"
     inkscape:pageshadow="2"
     inkscape:zoom="0.49497475"
     inkscape:cx="1243.4623"
     inkscape:cy="35.299341"
     inkscape:document-units="mm"
     inkscape:current-layer="layer1"
     showgrid="false"
     inkscape:window-width="1600"
     inkscape:window-height="835"
     inkscape:window-x="0"
     inkscape:window-y="0"
     inkscape:window-maximized="1" />
  <metadata
     id="metadata5">
    <rdf:RDF>
      <cc:Work
         rdf:about="">
        <dc:format>image/svg+xml</dc:format>
        <dc:type
           rdf:resource="http://purl.org/dc/dcmitype/StillImage" />
        <dc:title></dc:title>
      </cc:Work>
    </rdf:RDF>
  </metadata>
  <g
     inkscape:label="Ebene 1"
     inkscape:groupmode="layer"
     id="layer1"
     transform="translate(-19.290526,-93.002145)">
    <g
       transform="translate(-12.095232,6.8035717)"
       id="layer1-35"
       inkscape:label="Ebene 1">
      <g
         inkscape:label="Ebene 1"
         id="layer1-3"
         transform="translate(4.5357124,3.7797656)">
        <g
           id="g10"
           transform="matrix(0.35277777,0,0,-0.35277777,26.65712,198.6231)">
          <g
             id="g12"
             transform="scale(0.1)">
            <path
               d="m 5.46875,1199.21 c 0,625.12 506.73825,1131.86 1131.85125,1131.86 625.11,0 1131.86,-506.74 1131.86,-1131.86 C 2269.18,574.102 1762.43,67.3633 1137.32,67.3633 512.207,67.3633 5.46875,574.102 5.46875,1199.21"
               style="fill:none;fill-opacity:1;fill-rule:nonzero;stroke:none"
               id="path14"
               inkscape:connector-curvature="0" />
            <path
               d="m 1074.7,1647.08 c 0,909.57 734.23,1646.9 1639.99,1646.9 905.76,0 1640,-737.33 1640,-1646.9 C 4354.69,737.508 3620.45,0.175781 2714.69,0.175781 1808.93,0.175781 1074.7,737.508 1074.7,1647.08"
               style="fill:none;fill-opacity:1;fill-rule:nonzero;stroke:none"
               id="path16"
               inkscape:connector-curvature="0" />
            <path
               d="m 251.148,1199.22 c 0,491.48 396.747,889.9 886.172,889.9 489.42,0 886.17,-398.42 886.17,-889.9 0,-491.49 -396.75,-889.904 -886.17,-889.904 -489.425,0 -886.172,398.414 -886.172,889.904 z"
               style="fill:none;stroke:#000000;stroke-width:44.45199966;stroke-linecap:butt;stroke-linejoin:miter;stroke-miterlimit:3.8636899;stroke-dasharray:none;stroke-opacity:1"
               id="path18"
               inkscape:connector-curvature="0" />
            <path
               d="m 2273.06,1401.21 375.17,376.87 h 353.32 l -250.1,-251.25 500.65,0.01 v -251.22 l -500.65,-0.04 250.1,-251.25 h -353.32 l -375.17,376.88"
               style="fill:#ffb400;fill-opacity:1;fill-rule:nonzero;stroke:#000000;stroke-width:5;stroke-opacity:1"
               id="path20"
               inkscape:connector-curvature="0" />
            <path
               d="M 1160.27,1401.21 938.695,1623.79 H 730.02 l 147.714,-148.39 -295.66,-0.01 v -148.42 l 295.66,0.04 -147.714,-148.39 h 208.675 l 221.575,222.59"
               style="fill:#ffb400;fill-opacity:1;fill-rule:nonzero;stroke:#000000;stroke-width:5;stroke-opacity:1"
               id="path22"
               inkscape:connector-curvature="0" />
            <path
               d="m 1474.06,1647.09 c 0,688.07 555.44,1245.85 1240.63,1245.85 685.19,0 1240.63,-557.78 1240.63,-1245.85 0,-688.078 -555.44,-1245.856 -1240.63,-1245.856 -685.19,0 -1240.63,557.778 -1240.63,1245.856 z"
               style="fill:none;stroke:#000000;stroke-width:267.00601196;stroke-linecap:butt;stroke-linejoin:miter;stroke-miterlimit:3.8636899;stroke-dasharray:none;stroke-opacity:1"
               id="path24"
               inkscape:connector-curvature="0" />
            <path
               d="m 1763.92,1647.09 c 0,527.31 425.67,954.77 950.77,954.77 525.1,0 950.76,-427.46 950.76,-954.77 0,-527.31 -425.66,-954.77 -950.76,-954.77 -525.1,0 -950.77,427.46 -950.77,954.77 z"
               style="fill:none;stroke:#000000;stroke-width:44.45199966;stroke-linecap:butt;stroke-linejoin:miter;stroke-miterlimit:3.8636899;stroke-dasharray:none;stroke-opacity:1"
               id="path26"
               inkscape:connector-curvature="0" />
          </g>
        </g>
        <path
           style="fill:#ffffff;stroke-width:0.71428573"
           d="m 345.34282,402.55798 c -35.83529,-3.49683 -70.38786,-17.30582 -97.37205,-38.91492 l -5.95723,-4.77059 -3.14368,3.59369 c -1.72902,1.97653 -6.1074,6.08103 -9.72972,9.12111 -18.41359,15.45383 -38.36887,24.41611 -61.94319,27.81982 -10.95184,1.58125 -28.61732,1.10377 -39.45374,-1.06638 -49.318803,-9.87685 -87.419893,-49.2791 -96.056455,-99.33681 -1.453736,-8.42589 -1.6252,-29.36298 -0.307175,-37.50849 2.889397,-17.85673 9.230612,-34.52476 18.478592,-48.57143 17.765774,-26.98427 45.29497,-45.71271 77.338778,-52.6145 6.50313,-1.40067 9.63616,-1.6191 23.57143,-1.6433 16.42421,-0.0285 20.73143,0.4649 32.01725,3.66782 2.09163,0.59361 3.9076,0.96919 4.03549,0.83463 0.12789,-0.13456 1.43156,-3.45894 2.89704,-7.38751 24.64158,-66.057482 84.19045,-112.00183 154.2146,-118.982764 10.64126,-1.060862 33.6896,-0.481431 43.97848,1.105612 23.96621,3.696752 50.73057,13.564335 70,25.807857 16.16034,10.268058 35.99965,28.043633 46.55491,41.712155 15.9383,20.63928 27.51039,43.77469 33.48636,66.94733 11.32395,43.91017 6.87916,88.13436 -12.90593,128.40981 -26.58875,54.12531 -76.91157,91.01904 -136.90529,100.37094 -10.58281,1.64966 -32.81598,2.38001 -42.79847,1.40592 z m -183.29629,-7.8934 c 26.8217,-2.93655 49.88511,-13.61018 68.64864,-31.77024 l 7.54753,-7.30479 -8.55859,-8.86549 c -19.55083,-20.25191 -33.32983,-43.0608 -41.99407,-69.51437 -6.5539,-20.01026 -9.06452,-35.93691 -9.06452,-57.50258 0,-14.69939 1.21162,-26.50911 4.02203,-39.20279 1.01004,-4.56204 1.99379,-9.12804 2.18609,-10.14666 0.32715,-1.73284 0.0719,-1.92998 -3.96652,-3.0631 -12.09492,-3.39365 -29.08963,-4.76995 -41.52731,-3.36304 -50.938343,5.76201 -90.259572,41.37408 -101.606605,92.02209 -1.358666,6.06447 -1.56162,9.10549 -1.56162,23.39894 0,18.07407 0.734327,23.18025 5.316765,36.97036 16.840784,50.67967 68.22624,84.0712 120.55818,78.34167 z M 374.4427,367.56009 c 17.91801,-1.74655 35.94001,-6.82763 51.68282,-14.57133 39.31476,-19.33848 67.83375,-54.74778 78.57958,-97.56478 6.78287,-27.02646 5.61591,-56.40452 -3.30083,-83.09811 -16.18546,-48.45356 -56.14849,-85.17853 -105.84346,-97.267322 -22.44082,-5.458951 -48.707,-5.16003 -71.83833,0.817552 -34.797,8.992219 -65.97914,31.5774 -86.28814,62.49838 -7.23787,11.01985 -18.09453,34.98278 -18.09453,39.93842 0,0.74059 0.64674,1.69266 1.4372,2.1157 0.79046,0.42304 4.29407,3.14693 7.7858,6.05311 l 6.3486,5.28394 0.4894,-2.63512 c 1.02126,-5.49883 6.2791,-19.83731 9.95928,-27.15956 17.36923,-34.55873 47.57878,-59.02617 84.41628,-68.370764 24.9318,-6.324471 53.41904,-4.702375 76.95199,4.381734 65.82445,25.40934 99.62173,97.52271 76.76815,163.80054 -23.42357,67.93094 -96.62875,103.91254 -164.09191,80.65399 -17.48879,-6.02942 -33.57446,-15.74546 -46.27185,-27.94903 l -5.13563,-4.9359 -1.20523,4.18622 c -0.66288,2.30242 -2.12863,6.52494 -3.25723,9.38338 -1.1286,2.85844 -2.052,5.47911 -2.052,5.8237 0,0.34459 2.97322,3.0348 6.60715,5.97825 15.37485,12.45347 33.42545,21.99773 51.52046,27.24146 18.10771,5.2474 37.13954,7.12015 54.83243,5.39554 z m 10.94914,-25.70363 c 23.48295,-5.03339 43.94246,-15.68765 60.84685,-31.68594 18.98231,-17.96481 31.2213,-40.12733 36.83394,-66.69934 1.42609,-6.75157 1.62104,-9.69498 1.59747,-24.11863 -0.0234,-14.32469 -0.23417,-17.38904 -1.64573,-23.92857 -7.255,-33.6114 -25.4535,-60.91503 -52.9164,-79.39175 -36.52768,-24.575392 -83.47397,-27.779897 -123.26816,-8.41415 -13.32402,6.4841 -24.66378,14.89402 -35.55555,26.3691 -14.08816,14.84267 -23.54774,31.44879 -29.35104,51.52523 -3.13825,10.85672 -3.16751,10.3987 0.97539,15.26871 12.76169,15.00147 22.32192,34.76525 26.46347,54.70768 2.17018,10.44985 2.69287,30.27463 1.07176,40.64946 l -1.17192,7.5 6.20992,5.90829 c 18.8683,17.95181 41.8451,29.31077 67.4294,33.33481 10.0252,1.57682 32.91939,1.02447 42.4806,-1.0249 z m -125.09633,-25.7182 c 3.77441,-11.50207 3.76496,-10.7334 0.18568,-15.10301 -14.18339,-17.31519 -23.72638,-39.31087 -27.26865,-62.85164 -1.22874,-8.16584 -1.44079,-28.17689 -0.37363,-35.25963 l 0.64573,-4.28572 -3.67956,-3.80233 c -2.02376,-2.09129 -5.59865,-5.25455 -7.9442,-7.02949 l -4.26465,-3.22714 -0.58018,2.02948 c -3.24256,11.34251 -4.38149,38.08978 -2.26734,53.24758 2.79459,20.03637 9.75445,39.71583 20.1501,56.97577 6.53216,10.84535 21.0844,28.66605 22.36105,27.38338 0.31599,-0.31749 1.68204,-3.95225 3.03565,-8.07725 z m 5.88266,-31.42857 c 1.27059,-22.08108 -5.00445,-46.85337 -16.6439,-65.70598 -3.67885,-5.9587 -10.29138,-14.94749 -11.0232,-14.98447 -0.87928,-0.0444 -1.51548,12.432 -1.09146,21.40474 0.52345,11.07716 2.06152,20.07894 5.24789,30.71428 3.80131,12.68785 12.29279,29.37611 19.78138,38.87623 l 2.21091,2.8048 0.52286,-2.44766 c 0.28757,-1.34621 0.73556,-6.14408 0.99552,-10.66194 z"
           id="path33"
           inkscape:connector-curvature="0"
           transform="matrix(0.26458333,0,0,0.26458333,26.850045,82.418808)" />
      </g>
    </g>
    <flowRoot
       xml:space="preserve"
       id="flowRoot38"
       style="font-style:normal;font-variant:normal;font-weight:normal;font-stretch:normal;font-size:40px;line-height:1.25;font-family:'AlternateGothic2 BT';-inkscape-font-specification:'AlternateGothic2 BT';letter-spacing:0px;word-spacing:0px;fill:#000000;fill-opacity:1;stroke:none"
       transform="matrix(0.26458333,0,0,0.26458333,19.290526,93.002145)"><flowRegion
         id="flowRegion40"
         style="font-style:normal;font-variant:normal;font-weight:normal;font-stretch:normal;font-family:'AlternateGothic2 BT';-inkscape-font-specification:'AlternateGothic2 BT'"><rect
           id="rect42"
           width="768.57141"
           height="372.85715"
           x="540"
           y="46.316746"
           style="font-style:normal;font-variant:normal;font-weight:normal;font-stretch:normal;font-family:'AlternateGothic2 BT';-inkscape-font-specification:'AlternateGothic2 BT'" /></flowRegion><flowPara
         id="flowPara44"></flowPara></flowRoot>    <text
       xml:space="preserve"
       style="font-style:normal;font-weight:normal;font-size:10.58333302px;line-height:1.25;font-family:sans-serif;letter-spacing:0px;word-spacing:0px;fill:#000000;fill-opacity:1;stroke:none;stroke-width:0.26458332"
       x="176.48601"
       y="187.81947"
       id="text48"><tspan
         sodipodi:role="line"
         id="tspan46"
         x="176.48601"
         y="187.81947"
         style="font-style:normal;font-variant:normal;font-weight:normal;font-stretch:normal;font-size:105.83333588px;font-family:'AlternateGothic2 BT';-inkscape-font-specification:'AlternateGothic2 BT';stroke-width:0.26458332">Freifunk</tspan></text>
  </g>
</svg>
